<svg xmlns="http://www.w3.org/2000/svg" viewBox="0 0 900 268" width="900" height="268" font-family="-apple-system, BlinkMacSystemFont, 'Segoe UI', Roboto, Helvetica, Arial, sans-serif">
  <defs>
    <marker id="arw" markerWidth="9" markerHeight="9" refX="6" refY="3" orient="auto">
      <path d="M0,0 L6,3 L0,6 Z" fill="#e8590c"/>
    </marker>
  </defs>

  <rect x="28" y="98" width="196" height="72" rx="13" fill="#e8590c" fill-opacity="0.12" stroke="#e8590c" stroke-width="2"/>
  <text x="126" y="128" text-anchor="middle" fill="#e8590c" font-weight="700" font-size="15">one policy</text>
  <text x="126" y="150" text-anchor="middle" fill="#e8590c" fill-opacity="0.72" font-size="11" font-family="ui-monospace, Menlo, Consolas, monospace">{ mode, allow, … }</text>

  <path d="M224 134 C 260 134, 268 60, 300 60" fill="none" stroke="#e8590c" stroke-opacity="0.4" stroke-width="1.5" marker-end="url(#arw)"/>
  <path d="M224 134 C 262 134, 270 134, 300 134" fill="none" stroke="#e8590c" stroke-opacity="0.4" stroke-width="1.5" marker-end="url(#arw)"/>
  <path d="M224 134 C 260 134, 268 208, 300 208" fill="none" stroke="#e8590c" stroke-opacity="0.4" stroke-width="1.5" marker-end="url(#arw)"/>

  <rect x="308" y="34" width="252" height="52" rx="10" fill="#e8590c" fill-opacity="0.07" stroke="#e8590c" stroke-opacity="0.55" stroke-width="1.5"/>
  <text x="326" y="60" fill="#e8590c" font-weight="700" font-size="15">App</text>
  <text x="326" y="76" fill="#e8590c" fill-opacity="0.72" font-size="11.5">redact() · scan() · vault</text>

  <rect x="308" y="108" width="252" height="52" rx="10" fill="#e8590c" fill-opacity="0.07" stroke="#e8590c" stroke-opacity="0.55" stroke-width="1.5"/>
  <text x="326" y="134" fill="#e8590c" font-weight="700" font-size="15">Logs</text>
  <text x="326" y="150" fill="#e8590c" fill-opacity="0.72" font-size="11.5">console · pino · winston · stream</text>

  <rect x="308" y="182" width="252" height="52" rx="10" fill="#e8590c" fill-opacity="0.07" stroke="#e8590c" stroke-opacity="0.55" stroke-width="1.5"/>
  <text x="326" y="208" fill="#e8590c" font-weight="700" font-size="15">HTTP</text>
  <text x="326" y="224" fill="#e8590c" fill-opacity="0.72" font-size="11.5">express / connect middleware</text>

  <rect x="584" y="34" width="288" height="52" rx="10" fill="#e8590c" fill-opacity="0.07" stroke="#e8590c" stroke-opacity="0.55" stroke-width="1.5"/>
  <text x="602" y="60" fill="#e8590c" font-weight="700" font-size="15">LLM</text>
  <text x="602" y="76" fill="#e8590c" fill-opacity="0.72" font-size="11.5">openai · anthropic · reversible</text>

  <rect x="584" y="108" width="288" height="52" rx="10" fill="#e8590c" fill-opacity="0.07" stroke="#e8590c" stroke-opacity="0.55" stroke-width="1.5"/>
  <text x="602" y="134" fill="#e8590c" font-weight="700" font-size="15">Dataset</text>
  <text x="602" y="150" fill="#e8590c" fill-opacity="0.72" font-size="11.5">csv · fpe · join-consistent</text>

  <rect x="584" y="182" width="288" height="52" rx="10" fill="#e8590c" fill-opacity="0.07" stroke="#e8590c" stroke-opacity="0.55" stroke-width="1.5"/>
  <text x="602" y="208" fill="#e8590c" font-weight="700" font-size="15">Egress</text>
  <text x="602" y="224" fill="#e8590c" fill-opacity="0.72" font-size="11.5">fetch guard to named hosts</text>
</svg>
